<?xml version="1.0" standalone="no"?>
<!DOCTYPE svg PUBLIC "-//W3C//DTD SVG 20010904//EN"
 "http://www.w3.org/TR/2001/REC-SVG-20010904/DTD/svg10.dtd">
<svg version="1.0" xmlns="http://www.w3.org/2000/svg"
 width="700.000000pt" height="700.000000pt" viewBox="0 0 700.000000 700.000000"
 preserveAspectRatio="xMidYMid meet">
<metadata>
Created by potrace 1.14, written by Peter Selinger 2001-2017
</metadata>
<g transform="translate(0.000000,700.000000) scale(0.100000,-0.100000)"
fill="#000000" stroke="none">
<path d="M2245 6979 c-585 -34 -1150 -294 -1560 -720 -401 -415 -630 -940
-665 -1523 -13 -218 -13 -2235 1 -2445 31 -492 186 -914 483 -1311 92 -123
324 -355 449 -449 351 -262 740 -417 1187 -473 152 -19 2538 -19 2690 0 444
55 833 209 1180 468 135 101 363 329 464 464 258 347 413 737 468 1180 19 152
19 2538 0 2690 -67 539 -284 1007 -640 1381 -426 448 -973 700 -1603 739 -180
11 -2262 11 -2454 -1z m1601 -1534 c14 -9 32 -31 41 -50 16 -34 13 -57 -81
-722 -54 -379 -100 -696 -102 -705 -5 -16 23 -18 405 -20 l409 -3 26 -24 c15
-14 26 -35 26 -50 0 -36 -1269 -2259 -1305 -2286 -35 -27 -103 -25 -142 3 -64
46 -66 14 41 770 54 378 100 695 102 705 5 16 -18 17 -384 17 -214 0 -404 3
-421 6 -46 9 -67 45 -53 89 5 19 90 176 188 347 885 1560 1049 1848 1071 1881
41 64 118 82 179 42z"/>
</g>
</svg>
